HIERARCHY
ROOT pelvis
{
  OFFSET 0 100 0
  CHANNELS 6 Xposition Yposition Zposition Zrotation Xrotation Yrotation
  JOINT pelvis_right_femur
  {
    OFFSET -10.78128 -3.44521 -0.5502486
    CHANNELS 3 Zrotation Xrotation Yrotation
    JOINT right_femur_tibia
    {
      OFFSET -0.8047443 -44.0398 -0.1307829
      CHANNELS 3 Zrotation Xrotation Yrotation
      JOINT right_tibia_foot
      {
        OFFSET 3.006224 -47.83518 -5
        CHANNELS 3 Zrotation Xrotation Yrotation
        End Site
        {
          OFFSET 0 -5 15
        }
      }
    }
  }
  JOINT pelvis_left_femur
  {
    OFFSET 10.78128 -3.44521 -0.5502486
    CHANNELS 3 Zrotation Xrotation Yrotation
    JOINT left_femur_tibia
    {
      OFFSET 0.8047443 -44.0398 -0.1307829
      CHANNELS 3 Zrotation Xrotation Yrotation
      JOINT left_tibia_foot
      {
        OFFSET -4.370144 -48.10324 -4.275266
        CHANNELS 3 Zrotation Xrotation Yrotation
        End Site
        {
          OFFSET 0 -5 15
        }
      }
    }
  }
  JOINT pelvis_spine1
  {
    OFFSET 0 6.468898 -3.129235
    CHANNELS 3 Zrotation Xrotation Yrotation
    JOINT spine1
    {
      OFFSET 0 23.15396 4.99043
      CHANNELS 3 Zrotation Xrotation Yrotation
      JOINT spine2
      {
        OFFSET 0 20.79997 -5.064912
        CHANNELS 3 Zrotation Xrotation Yrotation
        JOINT neck
        {
          OFFSET 0 14.38658 9.616178
          CHANNELS 3 Zrotation Xrotation Yrotation
          End Site
          {
            OFFSET 0 20 0
          }
        }
      }
      JOINT right_manubrium
      {
        OFFSET -5.722621 16.35077 3.967754
        CHANNELS 3 Zrotation Xrotation Yrotation
        JOINT right_clavicle
        {
          OFFSET -13.16364 1.694482 -4.693211
          CHANNELS 3 Zrotation Xrotation Yrotation
          JOINT right_humerus
          {
            OFFSET -28.5034 -0.3100689 -2.792744
            CHANNELS 3 Zrotation Xrotation Yrotation
            JOINT right_radius
            {
              OFFSET -25.15693 0.02248979 -1.271978
              CHANNELS 3 Zrotation Xrotation Yrotation
              End Site
              {
                OFFSET -15 0 0
              }
            }
          }
        }
      }
      JOINT left_manubrium
      {
        OFFSET 5.722621 16.35077 3.967754
        CHANNELS 3 Zrotation Xrotation Yrotation
        JOINT left_clavicle
        {
          OFFSET 13.16364 1.694482 -4.693211
          CHANNELS 3 Zrotation Xrotation Yrotation
          JOINT left_humerus
          {
            OFFSET 29.39168 -1.063119 -2.237045
            CHANNELS 3 Zrotation Xrotation Yrotation
            JOINT left_radius
            {
              OFFSET 24.59957 -0.9528479 0.9047498
              CHANNELS 3 Zrotation Xrotation Yrotation
              End Site
              {
                OFFSET 15 -0 -0
              }
            }
          }
        }
      }
    }
  }
}
MOTION
Frames: 19
Frame Time: 0.0416666666667
-343.064 93.44849 3044.534 1.35407 -8.332686 -0.4252444 0.3482619 -3.459607 2.541824 -0 53.26685 -0 -4.519181 7.445482 -4.400271 -5.671994 -0.8314136 -8.804305 -0 17.80183 -0 -0.2713338 -12.96552 18.07013 -3.083224 0.106054 3.802607 -0.4047173 11.63777 -5.480373 1.446512 23.10218 5.740768 2.426844 -18.15455 6.649955 2.358949 -18.8086 11.36598 88.19176 24.83144 -14.17223 -0 0 13.44681 -23.0301 9.616861 13.21929 3.934475 -19.28156 -5.546345 -88.49488 23.32954 17.82436 0 0 -13.26892 1.286703 9.326587 12.7069
-342.6558 93.55595 3049.972 0.7148533 -8.753716 0.394895 1.14738 -10.68774 1.860871 -0 44.71525 -0 -5.698078 4.577627 -5.453848 -5.042066 5.161266 -8.712495 -0 14.85863 -0 -1.275262 -15.20152 17.09174 -2.159196 0.5303753 2.609403 0.1170305 11.05743 -6.282099 1.802074 23.50543 5.076312 1.710851 -17.83201 6.759537 0.4154759 -18.28507 10.79082 90.45221 20.64182 -16.17297 -0 0 12.25823 -21.24384 7.849688 12.1023 4.812248 -20.43427 -5.850619 -87.05448 23.85851 14.05801 0 0 -15.70839 1.375094 9.871686 12.14362
-342.5537 92.86665 3055.425 0.4374459 -8.901465 0.9067552 1.506395 -16.83711 0.9991379 -0 32.58536 -0 -6.843612 -0.3793815 -6.872928 -4.604931 11.63686 -9.02895 -0 13.97044 -0 -2.999743 -17.48768 15.47793 -1.768829 0.8098521 1.512546 0.9069809 9.524312 -6.946469 2.44149 24.28733 3.921538 0.6697302 -17.54209 6.860214 -1.841506 -17.0178 9.966824 92.48883 16.09643 -18.06345 -0 0 10.37606 -18.48379 5.462329 10.62058 5.266263 -20.94902 -5.849568 -85.1388 25.82756 9.280764 0 0 -18.60163 0.1906947 10.63714 12.66458
-342.8063 91.99826 3060.985 0.377272 -7.761508 1.090001 1.953454 -21.1195 0.5532851 -0 22.16753 -0 -8.04908 -5.142403 -8.047977 -4.431745 17.28183 -10.24858 -0 18.13704 -0 -5.07174 -18.85996 13.34207 -2.097821 0.9201265 0.5483575 2.038616 7.382442 -7.452844 2.875302 25.06129 3.15991 0.01991131 -18.07598 7.003306 -2.259709 -14.84258 9.488911 92.91933 15.88952 -19.97615 -0 0 7.446869 -14.91147 4.329692 9.094919 4.685079 -20.35299 -5.390898 -83.34086 29.76136 5.420572 0 0 -21.50126 -2.436782 11.6917 14.97046
-343.1933 92.02636 3066.576 -0.6117446 -3.352481 1.094318 4.094542 -24.64068 2.197109 -0 18.30635 -0 -8.403601 -6.32517 -7.311558 -3.903242 18.58009 -12.28481 -0 27.05646 -0 -7.862308 -18.1091 10.61224 -1.783521 0.5868663 0.471962 3.189846 6.181364 -8.170709 2.215708 24.07976 4.433755 0.9695779 -20.99633 7.389682 1.300535 -13.42215 9.903881 90.82905 24.44461 -22.28825 -0 0 6.059697 -11.52437 6.901527 7.700312 3.720706 -19.3691 -3.975789 -84.92708 34.16012 8.458882 0 0 -23.12455 -5.150114 12.12154 19.07949
-343.3558 92.66412 3072.382 -2.073819 1.77136 1.440965 6.434824 -27.34713 4.39557 -0 16.59372 -0 -7.296623 -3.529982 -4.856883 -3.299031 15.03411 -12.97285 -0 32.43905 -0 -10.61729 -15.84707 7.900415 -0.1016662 -0.387269 2.045814 3.370925 7.123108 -8.886054 1.124752 21.38257 6.619386 2.698218 -24.73449 7.852711 4.86428 -14.74051 10.81503 89.99382 32.4872 -24.85566 -0 0 7.849213 -10.95922 10.25436 7.19846 4.059274 -20.32803 -2.569992 -89.14089 34.11489 16.54456 0 0 -24.67493 -5.027378 10.95726 21.81064
-343.3828 92.98686 3078.666 -2.37078 2.747775 1.766949 6.89761 -27.02172 4.752052 -0 14.27498 -0 -6.407376 -1.19202 -4.190697 -3.169919 12.95248 -11.60599 -0 35.63579 -0 -10.94792 -13.54418 7.027163 0.7682148 -1.092497 3.124001 3.226156 8.370718 -9.223176 0.7384038 20.21242 7.138489 2.994227 -25.77521 7.734008 5.007853 -16.00476 11.37306 91.27552 32.65017 -26.60627 -0 0 8.093509 -12.54559 11.10025 7.870058 4.285076 -21.84444 -2.534488 -89.11003 31.58598 18.15543 0 0 -27.06576 -3.673596 9.230529 21.72642
-343.4292 93.46581 3085.317 -2.341686 2.076939 1.833603 7.28696 -24.6093 5.170189 -0 13.67927 -0 -6.153357 -1.15015 -4.576662 -3.003985 11.46338 -10.13808 -0 42.83336 -0 -10.49591 -10.83988 7.321751 0.9682472 -1.225098 3.512938 3.289438 8.98459 -9.298997 0.7031465 20.20391 6.891689 2.783541 -25.351 7.430066 4.878708 -15.91173 11.59823 91.79191 32.38435 -27.01651 -0 0 7.37984 -13.24628 11.39369 8.016465 3.907412 -22.18625 -2.599633 -88.12642 29.81805 17.25128 0 0 -27.36934 -2.512715 8.197812 20.42498
-343.4964 94.31329 3092.147 -2.122647 1.005432 1.620698 7.552454 -20.74133 5.648103 -0 13.26218 -0 -5.87058 -1.420116 -4.837013 -2.870029 8.452679 -8.680469 -0 51.34537 -0 -9.680932 -7.723008 8.264042 1.111316 -1.329606 4.262618 3.229572 9.951666 -9.236853 0.6656626 20.27575 6.719591 2.686649 -24.75239 7.1245 4.712628 -16.19853 11.96104 92.20974 32.27606 -27.23621 -0 0 6.998173 -14.46146 11.87979 8.363894 3.365758 -22.59107 -2.845758 -87.55688 27.98012 17.1467 0 0 -27.82016 -1.567899 7.141998 19.47493
-343.5654 95.4202 3098.927 -1.653847 -0.3652248 1.121553 7.441088 -16.31301 6.08413 -0 12.33291 -0 -5.093402 -1.345184 -4.994089 -2.814923 4.289661 -7.274476 -0 58.32309 -0 -8.546355 -5.033238 9.73831 1.138163 -1.476781 5.426229 3.027662 11.48001 -9.190719 0.588997 20.15576 6.785298 2.756713 -24.17334 6.875779 4.356309 -17.29437 12.53739 92.77722 31.96777 -27.63263 -0 0 7.240447 -16.93842 12.88581 9.399918 2.739133 -23.3521 -3.503837 -87.18624 26.28123 18.01821 0 0 -29.61783 -1.429424 5.745178 19.85502
-343.6227 96.59365 3105.434 -1.017215 -1.853513 0.3683549 6.950857 -11.98572 6.38542 -0 10.6602 -0 -3.906626 -1.163209 -5.005391 -2.746866 -0.7380974 -6.023594 -0 62.76513 -0 -7.311428 -3.324149 11.43974 0.9892285 -1.518836 6.828488 2.701805 13.2798 -9.115971 0.544299 19.89382 7.01457 2.945503 -23.61832 6.734993 3.873293 -18.94997 13.21797 93.18184 31.62925 -27.87483 -0 0 8.165353 -20.45574 14.40124 11.11072 2.105738 -24.22963 -4.434395 -86.91244 25.06074 19.5618 0 0 -32.47135 -2.092266 4.34523 21.42035
-343.6551 97.62439 3111.56 -0.3730277 -3.091492 -0.5731348 6.229306 -8.423355 6.527413 -0 8.280831 -0 -2.454772 -1.133259 -4.792361 -2.550185 -6.007037 -4.969872 -0 64.15044 -0 -6.290972 -2.815562 12.94027 0.6839535 -1.376946 8.214833 2.307277 14.90373 -8.956515 0.5633461 19.53434 7.303581 3.192008 -23.13278 6.706243 3.493941 -20.68994 13.86293 93.06101 31.58418 -27.63667 -0 0 9.690927 -24.32017 16.19411 13.17367 1.656081 -24.93937 -5.295559 -86.71802 24.36056 21.28027 0 0 -35.50863 -3.127918 3.222442 23.40824
-343.6618 98.36154 3117.309 0.171269 -3.832587 -1.626633 5.456618 -5.452061 6.511751 -0 5.920518 -0 -1.163899 -1.938464 -4.229851 -2.118628 -11.13109 -4.164261 -0 63.11012 -0 -5.828331 -3.263372 13.98041 0.2180598 -0.940555 9.291656 1.883101 15.72646 -8.520358 0.649746 19.32278 7.486837 3.453835 -22.54847 6.699583 3.58212 -21.77334 14.30508 91.78774 32.34591 -26.2594 -0 0 11.62839 -27.20938 17.75227 14.76343 1.618634 -25.01262 -5.602757 -86.80228 24.06065 22.54605 0 0 -36.87807 -3.844118 2.818679 24.43954
-343.6499 98.69165 3122.743 0.5939565 -4.145488 -2.708406 4.755755 -2.344858 6.362275 -0 4.205225 -0 -0.3684602 -4.053943 -3.300536 -1.386615 -16.17449 -3.524431 -0 60.17785 -0 -5.880385 -4.211207 14.66975 -0.367148 -0.2043649 9.934392 1.429698 15.48737 -7.67665 0.7876123 19.46699 7.427424 3.639726 -21.71328 6.62539 4.110193 -21.97002 14.45442 89.08219 33.76122 -23.23104 -0 0 13.83484 -28.33378 18.62196 15.36418 2.020119 -24.21976 -5.204831 -87.29294 23.96666 23.09541 0 0 -35.60843 -3.858138 3.266563 23.78671
-343.6188 98.49402 3127.967 0.8579638 -4.245813 -3.741072 4.229279 1.371061 6.123036 -0 3.189693 -0 -0.01957141 -7.355767 -2.202128 -0.3103551 -21.1643 -2.821129 -0 54.93073 -0 -6.04368 -5.331594 15.33894 -0.9301438 0.666789 10.16649 0.9712233 14.40435 -6.521465 0.962142 19.94385 7.067097 3.586525 -20.70715 6.482388 4.587095 -21.72012 14.29672 85.34803 34.82489 -18.64248 -0 0 16.26215 -27.94319 18.54514 15.21344 2.664519 -22.69836 -4.35501 -88.12916 23.95545 23.13524 0 0 -32.24385 -3.303518 4.179815 21.85712
-343.5528 97.6686 3133.164 0.8814519 -4.18108 -4.677418 3.961529 5.6354 5.842021 -0 2.60061 -0 0.1962526 -11.22147 -1.180526 1.127521 -25.83988 -1.814802 -0 46.70552 -0 -5.918829 -6.40322 16.22428 -1.287191 1.379872 10.08158 0.5800738 12.9202 -5.342842 1.12807 20.50712 6.481769 3.194586 -19.83105 6.334166 4.517245 -21.66448 13.88689 81.55787 34.59931 -13.38154 -0 0 18.89606 -26.88701 17.53598 14.95579 3.317084 -20.82125 -3.39682 -89.18801 23.94389 23.16799 0 0 -28.01506 -2.598431 4.946138 19.63736
-343.4356 96.2357 3138.598 0.6280895 -3.800905 -5.51193 3.927778 9.893227 5.559966 -0 2.391698 -0 0.5711066 -14.66726 -0.3836384 2.733438 -29.55173 -0.5489046 -0 36.1024 -0 -5.408768 -7.193061 17.26487 -1.337864 1.616155 9.806778 0.3335135 11.48533 -4.482263 1.216775 20.84382 5.889013 2.561959 -19.4092 6.258152 3.795801 -22.12236 13.31108 78.76341 33.08959 -8.817465 -0 0 21.54676 -26.02554 15.97822 15.08814 3.818219 -19.03465 -2.544166 -90.33293 23.83716 23.66003 0 0 -23.9996 -2.138722 5.176623 18.01443
-343.2698 94.40551 3144.51 0.2501038 -3.139926 -6.258987 3.877353 13.41781 5.336861 -0 3.176563 -0 1.143545 -16.61991 0.1276587 3.882838 -31.52411 0.4012842 -0 25.92448 -0 -4.811426 -7.550524 18.16038 -1.197754 1.266348 9.506221 0.2165932 10.41555 -4.086134 1.23297 20.84157 5.506233 1.981158 -19.44377 6.29157 2.785409 -22.82444 12.65753 77.37421 31.12404 -5.926574 -0 0 23.75554 -25.77211 14.44615 15.55525 4.108692 -17.65677 -1.893886 -91.40002 23.5841 24.63854 0 0 -20.63264 -2.052446 4.973613 17.27265
-343.0699 92.49647 3150.979 0.03781101 -2.714099 -6.916613 3.476193 15.88485 5.286248 -0 6.066167 -0 1.771858 -16.49559 0.2734114 3.906472 -31.51525 0.4043659 -0 19.39995 -0 -4.511881 -7.602015 18.69903 -1.134355 0.5831428 9.329675 0.09455932 9.807913 -3.961545 1.291464 20.69996 5.32332 1.674478 -19.53885 6.382331 1.911682 -23.26203 12.02727 77.18573 29.13985 -4.784085 -0 0 25.14739 -25.89774 13.16951 15.83693 4.212205 -16.71626 -1.560966 -92.28224 23.276 25.69092 0 0 -17.72768 -2.258645 4.65443 17.14611
